<?xml version="1.0" encoding="utf-8"?>
<!-- Generator: Adobe Illustrator 16.0.0, SVG Export Plug-In . SVG Version: 6.00 Build 0)  -->
<!DOCTYPE svg PUBLIC "-//W3C//DTD SVG 1.1//EN" "http://www.w3.org/Graphics/SVG/1.1/DTD/svg11.dtd">
<svg version="1.1" id="Capa_1" xmlns="http://www.w3.org/2000/svg" xmlns:xlink="http://www.w3.org/1999/xlink" x="0px" y="0px"
	 width="500px" height="451px" viewBox="0 0 500 451" enable-background="new 0 0 500 451" xml:space="preserve">
<path fill-rule="evenodd" clip-rule="evenodd" fill="#BCBCBC" d="M250.772,361.136c19.336,0,38.681-6.185,58.018-14.695
	l29.391,48.735c-23.978,11.599-61.106,22.434-87.409,22.434c-28.619,0-61.106-8.511-88.18-21.662l29.391-49.507
	C212.099,356.495,230.664,361.136,250.772,361.136z M443.381,223.456c0,30.164-6.966,58.782-20.889,89.725l-49.499-29.391
	c6.958-14.695,10.054-30.943,13.143-45.64v-28.618c-2.316-13.151-6.185-30.943-13.143-44.094l48.728-29.391
	C436.415,160.025,443.381,197.153,443.381,223.456z M127.788,165.438c-8.51,15.468-13.151,40.998-13.151,58.79
	c0,17.02,4.641,41.77,13.151,59.562l-47.963,28.618c-8.51-13.15-21.653-53.376-21.653-72.713v-29.391
	c2.316-24.758,7.73-49.508,21.653-74.257L127.788,165.438z M355.973,224.228c0,58.79-45.639,105.973-105.201,105.973
	c-41.77,0-85.083-20.889-103.648-80.452c-1.553-5.412-2.325-15.467-2.325-17.011v-17.021c7.738-65.747,58.018-96.69,105.973-96.69
	C310.334,119.027,355.973,166.21,355.973,224.228z M338.181,52.507l-28.619,49.5c-20.889-10.054-39.453-13.143-58.79-13.143
	c-20.108,0-38.673,3.088-58.79,13.143L162.592,53.28c31.715-17.792,57.237-20.889,88.18-20.889
	C280.943,32.391,304.148,35.488,338.181,52.507z M458.85,147.646c9.281,23.206,13.15,52.604,13.15,76.582
	c0,95.138-54.921,164.754-129.951,202.664C318.072,439.262,276.303,447,249.228,447c-82.768,0-176.362-47.184-213.49-160.122
	C33.413,279.92,28,252.074,28,242.021v-37.129c1.544-18.564,4.641-38.681,12.378-57.245c3.87-10.827,7.73-20.881,13.924-30.163
	C110.767,26.978,179.612,3,250,3C350.56,3,424.045,60.237,458.85,147.646z"/>
</svg>
