<?xml version="1.0" encoding="utf-8"?>
<!-- Generator: Adobe Illustrator 16.0.0, SVG Export Plug-In . SVG Version: 6.00 Build 0)  -->
<!DOCTYPE svg PUBLIC "-//W3C//DTD SVG 1.1//EN" "http://www.w3.org/Graphics/SVG/1.1/DTD/svg11.dtd">
<svg version="1.1" id="Capa_1" xmlns="http://www.w3.org/2000/svg" xmlns:xlink="http://www.w3.org/1999/xlink" x="0px" y="0px"
	 width="500px" height="451px" viewBox="0 0 500 451" enable-background="new 0 0 500 451" xml:space="preserve">
<path fill-rule="evenodd" clip-rule="evenodd" fill="#BCBCBC" d="M424.18,126.323v75.321h75.32v49.68h-75.32v75.32H374.5v-75.32
	h-74.52v-49.68h74.52v-75.321H424.18z M222.256,7.734c33.654,9.615,52.884,48.077,52.884,72.917c0,2.404-6.41,44.872-6.41,46.475
	c0,4.808,4.007,5.609,6.41,12.019c1.604,2.404,2.404,8.814,2.404,11.218c0,6.411-4.808,25.641-10.416,29.647
	c-4.809,3.205-11.219,4.808-12.821,12.02c-2.403,8.814-4.808,20.032-11.218,30.449c-11.218,17.628-16.827,19.23-16.827,35.257
	c0,11.217,1.603,25.641,11.218,37.66c23.237,28.045,55.289,34.455,82.532,45.673c22.437,8.813,48.077,17.628,70.513,39.263
	c0.802,0.801,8.814,12.02,8.814,14.423v56.892H-0.5V350.683c41.667-16.827,122.596-28.045,122.596-92.948
	c0-1.604-0.801-9.616-3.205-13.623c-4.808-8.813-12.02-16.826-16.827-25.641c-4.006-8.013-4.808-17.628-8.013-25.641
	c-3.205-11.218-16.827-12.821-19.231-22.436c-1.603-6.41-4.006-18.43-4.006-20.833c0-1.603,0.801-4.006,0.801-6.41
	c0.801-3.205,4.006-9.615,7.212-12.82c0.801-0.801,0.801-2.404,0.801-3.205l-5.609-40.064V71.836
	C87.641,9.336,133.314,1.323,174.18,1.323C195.013,1.323,196.615-0.279,222.256,7.734z"/>
</svg>
