<?xml version="1.0" encoding="utf-8"?>
<!-- Generator: Adobe Illustrator 16.0.0, SVG Export Plug-In . SVG Version: 6.00 Build 0)  -->
<!DOCTYPE svg PUBLIC "-//W3C//DTD SVG 1.1//EN" "http://www.w3.org/Graphics/SVG/1.1/DTD/svg11.dtd">
<svg version="1.1" id="Capa_1" xmlns="http://www.w3.org/2000/svg" xmlns:xlink="http://www.w3.org/1999/xlink" x="0px" y="0px"
	 width="500px" height="451px" viewBox="0 0 500 451" enable-background="new 0 0 500 451" xml:space="preserve">
<path fill-rule="evenodd" clip-rule="evenodd" fill="#BCBCBC" d="M178.231,32.238c8.222,2.751,17.355,8.238,25.585,13.732
	c14.62,10.989,42.94,40.286,44.772,40.286c2.735,0,35.629-35.703,56.648-46.692C333.564,24.912,343.61,24,367.371,24
	c68.525,0,127.005,51.267,127.005,121.769c0,21.05-5.479,40.277-16.443,61.336c-7.31,12.821-24.673,31.128-39.293,43.949
	C374.682,308.727,251.323,425,248.588,425c-1.832,0-137.97-126.343-205.591-189.511c-8.222-7.326-18.275-20.147-22.842-27.465
	C16.5,202.53,4.624,172.313,4.624,163.156v-33.872C20.155,54.216,74.98,24,129.805,24C144.425,24,161.78,25.832,178.231,32.238z"/>
</svg>
