<?xml version="1.0" encoding="utf-8"?>
<!-- Generator: Adobe Illustrator 16.0.0, SVG Export Plug-In . SVG Version: 6.00 Build 0)  -->
<!DOCTYPE svg PUBLIC "-//W3C//DTD SVG 1.1//EN" "http://www.w3.org/Graphics/SVG/1.1/DTD/svg11.dtd">
<svg version="1.1" id="Capa_1" xmlns="http://www.w3.org/2000/svg" xmlns:xlink="http://www.w3.org/1999/xlink" x="0px" y="0px"
	 width="500px" height="451px" viewBox="0 0 500 451" enable-background="new 0 0 500 451" xml:space="preserve">
<path fill-rule="evenodd" clip-rule="evenodd" fill="#BCBCBC" d="M262.952,297.142c-0.81,0.809-0.81,2.428-0.81,3.238
	c0.81,3.237,1.619,7.285,1.619,9.714c0,8.905-4.047,16.189-9.714,27.523c-14.571,25.904-62.332,41.284-83.379,41.284
	c-12.143,0-28.333-4.048-38.856-14.571c39.665-34.808,84.188-51.809,127.092-67.188H262.952z M415.949,279.332
	c0,4.857-4.856,12.143-9.715,18.618c-34.809,42.096-81.76,72.047-122.235,88.237c-42.904,17.81-87.427,25.095-130.331,25.095
	c-15.38,0-30.761-1.619-46.142-5.667c-4.048-0.81-12.953-3.237-15.38-6.476c-0.81-1.619-0.81-4.048-0.81-6.477
	c0-13.762,15.381-32.381,29.143-43.713c57.476-48.57,115.76-67.999,174.854-82.57c13.761-3.237,50.188-8.095,68.808-8.095
	C370.616,258.285,415.949,259.904,415.949,279.332z M182.001,18.671h23.476c5.667,0.809,10.523,1.619,15.381,1.619
	c37.236,1.619,75.283,38.047,89.045,62.332c7.285,13.762,17.809,28.333,25.095,42.095c14.571,25.904,24.286,54.237,42.904,80.141
	c9.714,12.953,25.904,17.809,37.237,21.047c19.428,4.857,37.237,33.19,37.237,50.19c0,9.714-7.285,26.714-12.952,35.618
	c-38.047,56.665-98.76,90.665-147.331,110.093c-42.903,16.19-89.044,26.714-132.758,26.714c-43.713,0-106.855-8.096-106.855-59.094
	c0-24.285,14.571-38.856,21.047-65.57v-19.428c-4.857-20.238-25.904-93.094-25.904-124.665v-34.809
	c3.238-30.761,18.618-65.57,55.855-95.522c2.429-1.619,5.667-5.666,7.286-7.285c5.667-6.476,8.096-14.571,8.904-21.047
	C122.908,7.338,131.002,2.48,140.717,2.48C157.716,2.48,160.954,18.671,182.001,18.671z"/>
</svg>
