<?xml version="1.0" encoding="utf-8"?>
<!-- Generator: Adobe Illustrator 16.0.0, SVG Export Plug-In . SVG Version: 6.00 Build 0)  -->
<!DOCTYPE svg PUBLIC "-//W3C//DTD SVG 1.1//EN" "http://www.w3.org/Graphics/SVG/1.1/DTD/svg11.dtd">
<svg version="1.1" id="Capa_1" xmlns="http://www.w3.org/2000/svg" xmlns:xlink="http://www.w3.org/1999/xlink" x="0px" y="0px"
	 width="70px" height="70px" viewBox="0 0 70 70" enable-background="new 0 0 70 70" xml:space="preserve">
<g>
	<g>
		<g>
			<path fill="#4BAA4A" d="M35,69.999c-6.126,0-12.135-1.62-17.457-4.697L3.907,69.999L6.709,55.56C2.316,49.538,0,42.455,0,35
				C0,15.701,15.701,0.001,35,0.001c19.301,0,35,15.7,35,34.999S54.301,69.999,35,69.999z"/>
		</g>
	</g>
	<g>
		<g>
			<path fill="none" d="M35,13.835c-11.688,0-21.164,9.477-21.164,21.164c0,4.913,1.688,9.42,4.496,13.012l-1.414,7.285l6.874-2.369
				c3.252,2.04,7.087,3.236,11.208,3.236c11.69,0,21.167-9.476,21.167-21.164C56.166,23.312,46.689,13.835,35,13.835z"/>
			<path fill="#FFFFFF" d="M35,57.865c-4.001,0-7.927-1.06-11.404-3.07l-8.909,3.07l1.831-9.435
				c-2.87-3.934-4.383-8.561-4.383-13.431c0-12.608,10.257-22.865,22.865-22.865c12.609,0,22.866,10.257,22.866,22.865
				C57.865,47.608,47.608,57.865,35,57.865z M24.006,51.057l0.689,0.431c3.105,1.946,6.668,2.976,10.304,2.976
				c10.733,0,19.464-8.73,19.464-19.463c0-10.732-8.731-19.463-19.464-19.463c-10.731,0-19.462,8.731-19.462,19.463
				c0,4.366,1.43,8.504,4.134,11.963l0.478,0.612l-1,5.154L24.006,51.057z"/>
		</g>
		<path fill="#FFFFFF" d="M23.457,26.215c0,0,1.342-2.345,2.436-2.479c1.094-0.135,2.502-0.135,2.881,0.58
			c0.38,0.714,2.077,4.87,2.077,4.87s0.291,0.714-0.156,1.407c-0.446,0.692-1.452,1.697-1.452,1.697s-0.559,0.715,0,1.475
			c0.559,0.758,1.424,2.154,3.217,3.944c1.789,1.792,5.225,3.068,5.225,3.068s0.492,0.067,0.806-0.245
			c0.312-0.313,2.01-2.436,2.01-2.436s0.545-0.703,1.451-0.29c0.904,0.413,4.824,2.368,4.824,2.368s0.458,0.167,0.458,0.859
			s-0.279,2.387-0.853,2.959c-0.573,0.573-2.248,2.339-4.765,2.339s-8.511-2.048-11.705-5.241c-3.194-3.195-6.03-6.434-6.699-9.381
			C22.542,28.761,22.632,27.429,23.457,26.215z"/>
	</g>
</g>
</svg>
