<?xml version="1.0" encoding="utf-8"?>
<!-- Generator: Adobe Illustrator 16.0.0, SVG Export Plug-In . SVG Version: 6.00 Build 0)  -->
<!DOCTYPE svg PUBLIC "-//W3C//DTD SVG 1.1//EN" "http://www.w3.org/Graphics/SVG/1.1/DTD/svg11.dtd">
<svg version="1.1" id="Capa_1" xmlns="http://www.w3.org/2000/svg" xmlns:xlink="http://www.w3.org/1999/xlink" x="0px" y="0px"
	 width="40px" height="40px" viewBox="0 0 40 40" enable-background="new 0 0 40 40" xml:space="preserve">
<g>
	<path fill="#FFFFFF" d="M18.613,11.861c-1.858,0-3.449,0.66-4.77,1.982c-1.321,1.321-1.982,2.911-1.982,4.77
		c0,1.859,0.661,3.449,1.982,4.77s2.911,1.982,4.77,1.982c1.859,0,3.449-0.661,4.77-1.982s1.982-2.911,1.982-4.77
		c0-1.858-0.661-3.449-1.982-4.77C22.062,12.522,20.472,11.861,18.613,11.861z"/>
	<path fill="#FFFFFF" d="M20,0C8.883,0-0.129,8.954-0.129,20c0,11.045,9.012,20,20.129,20s20.129-8.955,20.129-20
		C40.129,8.954,31.117,0,20,0z M32.509,32.509c-0.382,0.382-0.834,0.572-1.356,0.572c-0.543,0-0.995-0.191-1.356-0.572l-5.169-5.154
		c-1.799,1.245-3.803,1.868-6.014,1.868c-1.437,0-2.811-0.278-4.122-0.836s-2.442-1.312-3.391-2.261
		c-0.95-0.949-1.703-2.08-2.261-3.391c-0.558-1.312-0.836-2.686-0.836-4.122c0-1.437,0.279-2.811,0.836-4.122
		C9.397,13.18,10.15,12.05,11.1,11.1c0.949-0.95,2.08-1.703,3.391-2.261c1.311-0.558,2.685-0.836,4.122-0.836
		c1.437,0,2.811,0.279,4.123,0.836c1.311,0.558,2.441,1.311,3.391,2.261s1.703,2.08,2.261,3.391
		c0.558,1.311,0.837,2.685,0.837,4.122c0,2.21-0.623,4.215-1.869,6.014l5.169,5.169c0.372,0.372,0.558,0.824,0.558,1.356
		C33.081,31.675,32.891,32.127,32.509,32.509z"/>
</g>
</svg>
